# xmcd
#
# Track frame offsets:
#	150
#	22204
#	47156
#	64563
#	87021
#	111298
#	130655
#	149821
#	171935
#	187729
#	206524
#	223213
#	236072
#	253308
#	273700
#	289809
#
# Disc length: 4123 seconds
#
# Revision: 2
# Processed by: cddbd v1.5.2PL0 Copyright (c) Steve Scherf et al.
# Submitted via: audiograbber 1.83.01
#
DISCID=02101910
DTITLE=Faith Hill - Chartbuster CK5065 03
DYEAR=2006
DGENRE=Karaoke
TTITLE0=Free
TTITLE1=One
TTITLE2=There You'll Be
TTITLE3=Beautiful
TTITLE4=If This Is The End
TTITLE5=I Think I Will
TTITLE6=When The Lights Go Down
TTITLE7=Back To You
TTITLE8=You're Still Here
TTITLE9=Mississippi Girl
TTITLE10=Better Days
TTITLE11=Life's Too Short To Love Like That
TTITLE12=The Lucky One
TTITLE13=Stealing Kisses
TTITLE14=Sunshine and Summertime
TTITLE15=Where Are You Christmas
EXTD=
EXTT0=
EXTT1=
EXTT2=
EXTT3=
EXTT4=
EXTT5=
EXTT6=
EXTT7=
EXTT8=
EXTT9=
EXTT10=
EXTT11=
EXTT12=
EXTT13=
EXTT14=
EXTT15=
PLAYORDER=
